<svg width="32" height="16" viewBox="0 0 32 16" fill="none" xmlns="http://www.w3.org/2000/svg">
<path d="M30.4762 0H1.52381C0.682233 0 0 0.447715 0 1C0 1.55228 0.682233 2 1.52381 2H30.4762C31.3178 2 32 1.55228 32 1C32 0.447715 31.3178 0 30.4762 0Z" fill="white"/>
<path d="M30.4762 14H1.52381C0.682233 14 0 14.4477 0 15C0 15.5523 0.682233 16 1.52381 16H30.4762C31.3178 16 32 15.5523 32 15C32 14.4477 31.3178 14 30.4762 14Z" fill="white"/>
<path d="M31 7H1C0.447715 7 0 7.44772 0 8C0 8.55228 0.447715 9 1 9H31C31.5523 9 32 8.55228 32 8C32 7.44772 31.5523 7 31 7Z" fill="white"/>
</svg>
